<?xml version="1.0" standalone="no"?>
<!DOCTYPE svg PUBLIC "-//W3C//DTD SVG 20010904//EN"
 "http://www.w3.org/TR/2001/REC-SVG-20010904/DTD/svg10.dtd">
<svg version="1.0" xmlns="http://www.w3.org/2000/svg"
 width="86.000000pt" height="86.000000pt" viewBox="0 0 86.000000 86.000000"
 preserveAspectRatio="xMidYMid meet">
<metadata>
Created by potrace 1.11, written by Peter Selinger 2001-2013
</metadata>
<g transform="translate(0.000000,86.000000) scale(0.100000,-0.100000)"
fill="#000000" stroke="none">
<path d="M294 840 c-302 -107 -385 -482 -156 -706 113 -110 289 -148 434 -94
240 89 350 359 239 585 -53 107 -154 192 -263 221 -73 19 -191 17 -254 -6z
m139 -84 c-1 -49 -6 -72 -19 -87 -10 -11 -20 -15 -24 -10 -5 8 -5 83 -1 158 1
7 11 11 23 10 20 -4 22 -9 21 -71z m-107 -175 l-25 -24 1 122 c0 116 2 123 22
130 20 8 21 6 24 -97 3 -101 2 -107 -22 -131z m208 231 c5 -8 -47 -72 -58 -72
-3 0 -6 18 -6 40 0 38 2 40 29 40 17 0 32 -4 35 -8z m-269 -160 c-1 -126 -3
-140 -22 -161 -11 -12 -23 -19 -25 -14 -2 4 -4 70 -4 146 1 147 0 144 52 167
0 0 0 -62 -1 -138z m350 122 c0 -7 -36 -49 -79 -95 -359 -379 -359 -379 -388
-379 -32 0 -35 9 -10 31 15 14 295 306 397 415 38 41 80 55 80 28z m65 -39
c13 -16 10 -19 -155 -191 -16 -17 -76 -79 -133 -138 -90 -93 -107 -107 -132
-104 -28 3 -26 5 67 103 52 55 147 155 211 223 64 67 119 122 123 122 4 0 12
-7 19 -15z m-525 -334 l-25 -26 0 155 c0 146 1 155 23 178 l22 24 3 -153 c3
-152 2 -153 -23 -178z m585 274 c15 -18 22 -8 -146 -184 -56 -58 -120 -125
-143 -149 -34 -36 -46 -43 -72 -40 l-31 3 38 42 c125 133 329 343 335 343 4 0
12 -7 19 -15z m-645 -195 c0 -115 -3 -143 -17 -156 -15 -15 -17 -13 -26 31 -5
25 -8 73 -7 105 3 59 30 160 44 160 3 0 6 -63 6 -140z m690 119 c8 -23 11 -18
-159 -196 -88 -90 -104 -103 -133 -103 l-34 0 105 108 c58 59 126 131 153 160
26 28 51 52 55 52 3 0 10 -9 13 -21z m27 -93 c4 -19 -12 -42 -81 -116 -78 -82
-90 -91 -118 -88 l-31 3 107 112 c58 62 109 112 112 113 4 0 9 -11 11 -24z m4
-108 c-20 -108 -13 -98 -69 -98 l-51 0 31 33 c17 17 41 44 53 60 29 33 42 35
36 5z m-118 -138 c72 0 84 -7 59 -32 -20 -20 -627 -19 -651 1 -9 7 -16 17 -16
22 0 9 211 15 410 12 69 -1 158 -3 198 -3z m12 -89 c0 -5 -11 -16 -25 -25 -21
-14 -59 -16 -257 -16 -128 0 -237 4 -243 8 -5 4 -16 15 -24 25 -13 16 1 17
268 17 156 0 281 -4 281 -9z m-120 -82 c0 -14 -91 -34 -160 -34 -78 0 -187 24
-157 34 22 8 317 8 317 0z"/>
</g>
</svg>
