<svg width="1183" height="190" viewBox="0 0 1183 190" fill="none" xmlns="http://www.w3.org/2000/svg">
<g filter="url(#filter0_i)">
<path d="M226.447 148.83C241.606 148.83 253.936 144.989 263.436 137.308C272.936 129.628 277.787 119.319 277.787 106.181C277.787 98.0957 275.564 91.0212 272.532 86.1701C269.904 81.319 263.436 76.2658 259.192 73.6382C257.17 72.2233 254.138 70.8084 250.298 69.3935C246.458 67.7765 243.426 66.5637 241.202 65.9573L231.5 62.7233C220.989 59.4892 213.915 56.4573 210.075 53.8296C206.436 50.9999 204.617 47.3615 204.617 42.9147C204.617 34.6275 211.692 28.7658 223.213 28.7658C235.543 28.7658 244.638 34.8296 250.298 46.9573L273.745 33.4147C264.043 13.4041 246.053 1.68063 223.213 1.68063C210.479 1.68063 199.362 5.52106 190.266 13.2019C181.17 20.6807 176.723 30.9892 176.723 43.7232C176.723 56.6594 181.372 66.3616 190.064 72.8297C198.957 79.0956 206.638 82.1276 219.372 85.968C230.894 89.202 238.777 92.234 243.224 95.0638C247.67 97.6914 249.894 101.532 249.894 106.585C249.894 115.277 242.819 121.543 227.255 121.543C211.085 121.543 200.17 114.266 194.713 99.9148L170.862 113.862C178.745 135.489 198.351 148.83 226.447 148.83ZM350.959 42.1062C337.215 42.1062 327.108 46.7552 320.842 56.2552V44.936H294.768V146H320.842V91.4254C320.842 74.6488 329.534 66.3616 343.076 66.3616C355.204 66.3616 363.087 73.6382 363.087 87.1808V146H389.161V83.9467C389.161 70.8084 385.523 60.702 378.247 53.2233C371.172 45.7445 362.076 42.1062 350.959 42.1062ZM497.532 133.468C507.841 123.16 513.096 110.425 513.096 95.468C513.096 80.5105 507.841 67.9786 497.532 57.6701C487.224 47.3615 474.489 42.1062 459.532 42.1062C444.575 42.1062 431.84 47.3615 421.532 57.6701C411.223 67.9786 406.17 80.5105 406.17 95.468C406.17 110.425 411.223 123.16 421.532 133.468C431.84 143.777 444.575 148.83 459.532 148.83C474.489 148.83 487.224 143.777 497.532 133.468ZM439.926 115.479C434.872 110.223 432.245 103.553 432.245 95.468C432.245 87.3829 434.872 80.7127 439.926 75.4573C445.181 70.202 451.649 67.5743 459.532 67.5743C467.415 67.5743 473.883 70.202 479.138 75.4573C484.394 80.7127 487.021 87.3829 487.021 95.468C487.021 103.553 484.394 110.223 479.138 115.479C473.883 120.734 467.415 123.362 459.532 123.362C451.649 123.362 445.181 120.734 439.926 115.479ZM624.108 107.191L605.715 44.936H581.055L562.661 106.989L545.481 44.936H517.789L549.927 146H574.789L593.385 84.7552L611.981 146H636.842L668.981 44.936H641.289L624.108 107.191ZM819.269 4.51042H734.78V146H762.673V91.4254H817.652V64.7446H762.673V31.1913H819.269V4.51042ZM854.956 32.8083C863.647 32.8083 870.924 25.5317 870.924 16.8402C870.924 8.14872 863.647 0.669988 854.956 0.669988C846.062 0.669988 838.786 8.14872 838.786 16.8402C838.786 25.5317 846.062 32.8083 854.956 32.8083ZM841.818 148.021C841.818 160.149 836.158 165 823.828 164.192V189.255C853.743 191.075 867.892 177.734 867.892 148.021V44.936H841.818V148.021ZM977.783 133.468C988.092 123.16 993.347 110.425 993.347 95.468C993.347 80.5105 988.092 67.9786 977.783 57.6701C967.475 47.3615 954.741 42.1062 939.783 42.1062C924.826 42.1062 912.092 47.3615 901.783 57.6701C891.475 67.9786 886.422 80.5105 886.422 95.468C886.422 110.425 891.475 123.16 901.783 133.468C912.092 143.777 924.826 148.83 939.783 148.83C954.741 148.83 967.475 143.777 977.783 133.468ZM920.177 115.479C915.124 110.223 912.496 103.553 912.496 95.468C912.496 87.3829 915.124 80.7127 920.177 75.4573C925.432 70.202 931.9 67.5743 939.783 67.5743C947.666 67.5743 954.134 70.202 959.39 75.4573C964.645 80.7127 967.273 87.3829 967.273 95.468C967.273 103.553 964.645 110.223 959.39 115.479C954.134 120.734 947.666 123.362 939.783 123.362C931.9 123.362 925.432 120.734 920.177 115.479ZM1037.76 44.936H1011.69V146H1037.76V97.6914C1037.76 87.9893 1040.8 81.1169 1047.06 76.8722C1053.33 72.6275 1060.61 71.0105 1068.49 72.0212V42.9147C1054.74 42.9147 1042.62 49.3828 1037.76 62.319V44.936ZM1156.59 56.8616C1148.91 46.9573 1138 42.1062 1123.85 42.1062C1110.31 42.1062 1098.58 47.3615 1088.88 57.6701C1079.38 67.9786 1074.53 80.5105 1074.53 95.468C1074.53 110.425 1079.38 123.16 1088.88 133.468C1098.58 143.777 1110.31 148.83 1123.85 148.83C1138 148.83 1148.91 143.979 1156.59 134.074V146H1182.67V4.51042H1156.59V56.8616ZM1108.49 116.085C1103.23 110.628 1100.6 103.755 1100.6 95.468C1100.6 87.1808 1103.23 80.3084 1108.49 75.0531C1113.95 69.5956 1120.62 66.968 1128.7 66.968C1136.79 66.968 1143.46 69.5956 1148.71 75.0531C1153.97 80.3084 1156.59 87.1808 1156.59 95.468C1156.59 103.755 1153.97 110.628 1148.71 116.085C1143.46 121.34 1136.79 123.968 1128.7 123.968C1120.62 123.968 1113.95 121.34 1108.49 116.085Z" fill="#0D0D0D"/>
</g>
<path d="M10 107.21L9.048 107.21L9.048 112.04L6.262 109.24C5.1 108.078 4.106 107.42 2.972 107.42C2.062 107.42 1.348 107.714 0.829999 108.316C0.298 108.904 0.0319996 109.59 0.0319997 110.374C0.0319997 111.662 0.661999 112.782 1.88 113.398L2.37 112.572C1.446 112.11 0.983999 111.382 0.983999 110.374C0.983999 109.296 1.726 108.4 2.972 108.4C3.686 108.4 4.554 108.904 5.562 109.912L9.118 113.44L10 113.44L10 107.21ZM8.796 95.4412C7.872 94.7832 6.64 94.4612 5.1 94.4612C3.56 94.4612 2.328 94.7832 1.418 95.4412C0.493999 96.0852 0.0319991 96.9952 0.0319991 98.1712C0.0319992 99.3473 0.493999 100.257 1.418 100.915C2.328 101.559 3.56 101.881 5.1 101.881C6.64 101.881 7.872 101.559 8.796 100.915C9.706 100.257 10.168 99.3472 10.168 98.1712C10.168 96.9952 9.706 96.0852 8.796 95.4412ZM8.138 100.187C7.424 100.663 6.402 100.901 5.1 100.901C3.798 100.901 2.776 100.663 2.062 100.187C1.348 99.6972 0.983999 99.0252 0.983999 98.1712C0.983999 97.3172 1.348 96.6452 2.062 96.1692C2.776 95.6792 3.798 95.4412 5.1 95.4412C6.402 95.4412 7.424 95.6792 8.138 96.1692C8.852 96.6452 9.216 97.3172 9.216 98.1712C9.216 99.0252 8.852 99.6972 8.138 100.187ZM10 82.9096L9.048 82.9096L9.048 87.7396L6.262 84.9396C5.1 83.7776 4.106 83.1196 2.972 83.1196C2.062 83.1196 1.348 83.4136 0.829998 84.0156C0.297998 84.6036 0.0319986 85.2896 0.0319986 86.0736C0.0319987 87.3616 0.661998 88.4816 1.88 89.0976L2.37 88.2716C1.446 87.8096 0.983998 87.0816 0.983998 86.0736C0.983998 84.9956 1.726 84.0996 2.972 84.0996C3.686 84.0996 4.554 84.6036 5.562 85.6116L9.118 89.1396L10 89.1396L10 82.9096ZM8.796 71.1409C7.872 70.4829 6.64 70.1609 5.1 70.1609C3.56 70.1609 2.328 70.4829 1.418 71.1409C0.493998 71.7849 0.031998 72.6949 0.0319981 73.8709C0.0319981 75.0469 0.493998 75.9569 1.418 76.6149C2.328 77.2589 3.56 77.5809 5.1 77.5809C6.64 77.5809 7.872 77.2589 8.796 76.6149C9.706 75.9569 10.168 75.0469 10.168 73.8709C10.168 72.6949 9.706 71.7849 8.796 71.1409ZM8.138 75.8869C7.424 76.3629 6.402 76.6009 5.1 76.6009C3.798 76.6009 2.776 76.3629 2.062 75.8869C1.348 75.3969 0.983998 74.7249 0.983997 73.8709C0.983997 73.0169 1.348 72.3449 2.062 71.8689C2.776 71.3789 3.798 71.1409 5.1 71.1409C6.402 71.1409 7.424 71.3789 8.138 71.8689C8.852 72.3449 9.216 73.0169 9.216 73.8709C9.216 74.7249 8.852 75.3969 8.138 75.8869Z" fill="#E9E9E9"/>
<defs>
<filter id="filter0_i" x="170.862" y="0.670044" width="1011.81" height="191.63" filterUnits="userSpaceOnUse" color-interpolation-filters="sRGB">
<feFlood flood-opacity="0" result="BackgroundImageFix"/>
<feBlend mode="normal" in="SourceGraphic" in2="BackgroundImageFix" result="shape"/>
<feColorMatrix in="SourceAlpha" type="matrix" values="0 0 0 0 0 0 0 0 0 0 0 0 0 0 0 0 0 0 127 0" result="hardAlpha"/>
<feOffset dy="2.88112"/>
<feGaussianBlur stdDeviation="1.44056"/>
<feComposite in2="hardAlpha" operator="arithmetic" k2="-1" k3="1"/>
<feColorMatrix type="matrix" values="0 0 0 0 0 0 0 0 0 0 0 0 0 0 0 0 0 0 0.25 0"/>
<feBlend mode="normal" in2="shape" result="effect1_innerShadow"/>
</filter>
</defs>
</svg>
