<svg xmlns="http://www.w3.org/2000/svg"><symbol id="arrow" viewBox="0 0 28 28">
<circle cx="14" cy="14" r="13.25" stroke="#BDD0E7" stroke-width="1.5"/>
<path d="M9.28033 11.2278C8.98744 10.9241 8.51256 10.9241 8.21967 11.2278C7.92678 11.5315 7.92678 12.024 8.21967 12.3278L13.4697 17.7722C13.7626 18.0759 14.2374 18.0759 14.5303 17.7722L19.7803 12.3277C20.0732 12.024 20.0732 11.5315 19.7803 11.2278C19.4874 10.9241 19.0126 10.9241 18.7197 11.2278L14 16.1223L9.28033 11.2278Z" fill="#BDD0E7"/>
</symbol><symbol id="logo"><path fill-rule="evenodd" clip-rule="evenodd" d="M40.149 41.816h-2.243V27.39h2.243v6.182h2.549v-6.181h2.283v14.424h-2.283v-6.182h-2.55v6.182zM20.517 27.39v11.13c0 .522.106.886.315 1.092.21.207.493.31.845.31.353 0 .636-.103.847-.31.212-.206.316-.57.316-1.092V27.392h2.12v10.983c0 1.167-.282 2.063-.846 2.688-.564.625-1.397.937-2.498.937-1.1 0-1.934-.312-2.498-.937-.564-.625-.847-1.52-.847-2.688V27.392h2.246zm7.583 3.462c0-1.167.274-2.063.826-2.688.55-.625 1.377-.937 2.478-.937 1.1 0 1.927.312 2.477.937.55.625.825 1.52.825 2.688v.453h-2.12v-.597c0-.522-.098-.89-.294-1.103-.198-.213-.472-.318-.827-.318-.353 0-.629.107-.826.318-.198.214-.295.58-.295 1.103 0 .494.109.93.325 1.309.218.377.49.735.817 1.07.327.337.676.674 1.05 1.01.372.336.724.705 1.049 1.102.325.398.598.853.816 1.361.218.508.326 1.106.326 1.793 0 1.168-.281 2.063-.846 2.688-.564.626-1.397.937-2.498.937-1.1 0-1.934-.311-2.498-.937-.564-.625-.847-1.52-.847-2.688v-.885h2.12v1.03c0 .521.106.885.315 1.091.212.207.493.31.847.31.355 0 .636-.103.847-.31.212-.206.316-.57.316-1.091a2.6 2.6 0 00-.326-1.31 5.43 5.43 0 00-.816-1.07 21.379 21.379 0 00-1.05-1.01 10.005 10.005 0 01-1.05-1.102 5.667 5.667 0 01-.816-1.36c-.216-.51-.325-1.108-.325-1.794z" fill="#554D4D"/><path d="M66.902 31.368v10.448h-2.018V27.39h2.813l2.304 8.634v-8.633H72v14.424h-2.304l-2.794-10.448zm-15.17 4.697l-.693 1.32v4.429h-2.242V27.39h2.242v6.284l2.936-6.284h2.242l-3.12 6.43 3.12 7.994h-2.303l-2.181-5.749zm7.401-8.673h2.242v14.424h-2.242V27.39zM3.98 7.213L1.623 3.822a.888.888 0 00-1.244-.217.908.908 0 00-.216 1.255l2.36 3.39a.887.887 0 001.242.219.908.908 0 00.217-1.256zM9.805 5.78V.902c0-.499-.4-.902-.893-.902a.899.899 0 00-.893.902V5.78c0 .498.4.9.893.9a.897.897 0 00.893-.9z" fill="#554D4D"/><path fill-rule="evenodd" clip-rule="evenodd" d="M11.039 32.646v5.685C11.039 40.346 9.4 42 7.409 42H2.611V17.533c0-3.519 2.821-6.37 6.303-6.37 3.481 0 6.303 2.853 6.303 6.37V32.05a.594.594 0 01-.59.596H11.04zm-3.63 7.087H4.853v-22.2c0-2.267 1.818-4.104 4.06-4.104 2.243 0 4.061 1.838 4.061 4.104v12.845H8.796v7.953c0 .763-.632 1.402-1.387 1.402zm1.258-19.446h1.825c.214 0 .392.177.392.396v1.845a.394.394 0 01-.392.394H8.667a.393.393 0 01-.39-.394v-1.845c0-.219.175-.396.39-.396z" fill="#554D4D"/><path d="M16.205 3.822l-2.358 3.393a.908.908 0 00.216 1.255.887.887 0 001.242-.218l2.359-3.392c.26-.665.25-.94-.217-1.255a.886.886 0 00-1.242.217z" fill="#554D4D"/></symbol></svg>