<svg width="882" height="155" viewBox="0 0 882 155" fill="none" xmlns="http://www.w3.org/2000/svg">
<g filter="url(#filter0_i)">
<path d="M76.9464 154.034C103.922 154.034 127.736 140.547 140.381 119.261L115.302 104.72C108.347 117.575 93.806 125.584 76.9464 125.584C62.6157 125.584 51.0247 121.158 42.1734 112.096C33.5329 103.034 29.1072 91.4431 29.1072 77.3232C29.1072 62.9925 33.5329 51.4015 42.1734 42.3395C51.0247 33.2774 62.6157 28.8518 76.9464 28.8518C93.806 28.8518 107.926 36.6493 115.302 49.9263L140.381 35.3849C127.736 14.0996 103.711 0.611906 76.9464 0.611906C54.8181 0.611906 36.4833 7.98799 21.9419 22.7402C7.40045 37.2816 0.235109 55.6164 0.235109 77.3232C0.235109 99.0299 7.40045 117.154 21.9419 131.906C36.4833 146.658 54.8181 154.034 76.9464 154.034ZM247.377 138.018C258.125 127.27 263.604 113.993 263.604 98.3977C263.604 82.8025 258.125 69.7363 247.377 58.9883C236.629 48.2403 223.352 42.761 207.757 42.761C192.161 42.761 178.884 48.2403 168.136 58.9883C157.388 69.7363 152.12 82.8025 152.12 98.3977C152.12 113.993 157.388 127.27 168.136 138.018C178.884 148.766 192.161 154.034 207.757 154.034C223.352 154.034 236.629 148.766 247.377 138.018ZM187.314 119.261C182.046 113.782 179.306 106.827 179.306 98.3977C179.306 89.9679 182.046 83.0133 187.314 77.5339C192.794 72.0545 199.538 69.3148 207.757 69.3148C215.976 69.3148 222.719 72.0545 228.199 77.5339C233.678 83.0133 236.418 89.9679 236.418 98.3977C236.418 106.827 233.678 113.782 228.199 119.261C222.719 124.741 215.976 127.481 207.757 127.481C199.538 127.481 192.794 124.741 187.314 119.261ZM341.316 42.761C326.986 42.761 316.448 47.6081 309.915 57.5131V45.7114H282.729V151.084H309.915V94.1828C309.915 76.6909 318.977 68.0504 333.097 68.0504C345.742 68.0504 353.961 75.6372 353.961 89.7571V151.084H381.147V86.3852C381.147 72.6868 377.354 62.1495 369.767 54.3519C362.391 46.5544 352.907 42.761 341.316 42.761ZM464.634 45.7114H440.819V16.2071L413.633 24.4261V45.7114H395.298V71.8438H413.633V115.679C413.633 144.551 427.332 155.299 464.634 151.084V126.427C449.038 127.27 440.819 127.059 440.819 115.679V71.8438H464.634V45.7114ZM560.592 58.1454C552.373 47.8188 540.992 42.761 526.24 42.761C512.12 42.761 500.108 48.2403 489.992 58.9883C480.087 69.7363 475.029 82.8025 475.029 98.3977C475.029 113.993 480.087 127.27 489.992 138.018C500.108 148.766 512.12 154.034 526.24 154.034C540.992 154.034 552.373 148.977 560.592 138.65V151.084H587.778V45.7114H560.592V58.1454ZM510.434 119.894C504.955 114.204 502.215 107.038 502.215 98.3977C502.215 89.7571 504.955 82.5918 510.434 77.1124C515.914 71.4223 522.868 68.6826 531.298 68.6826C539.728 68.6826 546.683 71.4223 552.162 77.1124C557.852 82.5918 560.592 89.7571 560.592 98.3977C560.592 107.038 557.852 114.204 552.162 119.894C546.683 125.373 539.728 128.113 531.298 128.113C522.868 128.113 515.914 125.373 510.434 119.894ZM662.587 154.034C683.03 154.034 700.943 143.286 710.216 126.638L686.612 113.15C682.398 121.79 673.335 127.059 662.377 127.059C654.158 127.059 647.414 124.319 642.145 119.051C636.877 113.571 634.137 106.617 634.137 98.3977C634.137 81.5381 646.149 69.5256 662.377 69.5256C673.125 69.5256 682.187 75.005 686.402 83.6455L709.794 69.9471C701.154 53.2982 683.03 42.761 662.587 42.761C646.782 42.761 633.505 48.0296 622.757 58.7776C612.219 69.5256 606.951 82.5918 606.951 98.3977C606.951 114.204 612.219 127.27 622.757 138.018C633.505 148.766 646.782 154.034 662.587 154.034ZM784.867 45.7114H761.053V16.2071L733.867 24.4261V45.7114H715.532V71.8438H733.867V115.679C733.867 144.551 747.566 155.299 784.867 151.084V126.427C769.272 127.27 761.053 127.059 761.053 115.679V71.8438H784.867V45.7114ZM826.85 75.6372C826.85 70.3686 832.119 66.9966 839.073 66.9966C846.871 66.9966 852.561 70.5793 855.933 77.7447L879.115 65.0999C870.896 50.7693 856.144 42.761 839.073 42.761C827.693 42.761 818.21 45.7114 810.412 51.823C802.825 57.7239 799.032 65.9429 799.032 76.2694C799.032 98.1869 818.631 104.72 834.226 108.724C844.974 111.464 853.404 114.625 853.404 120.315C853.404 126.427 848.557 129.377 838.863 129.377C828.115 129.377 821.371 124.741 818.21 115.679L794.606 128.956C802.404 145.605 817.156 154.034 838.863 154.034C850.875 154.034 860.991 151.084 868.999 145.394C877.218 139.493 881.222 131.063 881.222 120.315C881.433 97.7654 861.412 90.3894 846.028 87.2282C835.28 84.4885 826.85 81.3273 826.85 75.6372Z" fill="#0D0D0D"/>
</g>
<defs>
<filter id="filter0_i" x="0.235107" y="0.611816" width="880.989" height="156.426" filterUnits="userSpaceOnUse" color-interpolation-filters="sRGB">
<feFlood flood-opacity="0" result="BackgroundImageFix"/>
<feBlend mode="normal" in="SourceGraphic" in2="BackgroundImageFix" result="shape"/>
<feColorMatrix in="SourceAlpha" type="matrix" values="0 0 0 0 0 0 0 0 0 0 0 0 0 0 0 0 0 0 127 0" result="hardAlpha"/>
<feOffset dy="3.00395"/>
<feGaussianBlur stdDeviation="1.50197"/>
<feComposite in2="hardAlpha" operator="arithmetic" k2="-1" k3="1"/>
<feColorMatrix type="matrix" values="0 0 0 0 0 0 0 0 0 0 0 0 0 0 0 0 0 0 0.25 0"/>
<feBlend mode="normal" in2="shape" result="effect1_innerShadow"/>
</filter>
</defs>
</svg>
