<svg width="1142" height="145" viewBox="0 0 1142 145" fill="none" xmlns="http://www.w3.org/2000/svg">
<g filter="url(#filter0_i)">
<path d="M310.16 69.2339L362.511 0.510418H330.373L281.862 62.968V0.510418H253.969V142H281.862V75.702L332.394 142H364.533L310.16 69.2339ZM454.139 129.468C464.447 119.16 469.702 106.425 469.702 91.468C469.702 76.5105 464.447 63.9786 454.139 53.6701C443.83 43.3615 431.096 38.1062 416.138 38.1062C401.181 38.1062 388.447 43.3615 378.138 53.6701C367.83 63.9786 362.777 76.5105 362.777 91.468C362.777 106.425 367.83 119.16 378.138 129.468C388.447 139.777 401.181 144.83 416.138 144.83C431.096 144.83 443.83 139.777 454.139 129.468ZM396.532 111.479C391.479 106.223 388.851 99.5531 388.851 91.468C388.851 83.3829 391.479 76.7127 396.532 71.4573C401.787 66.202 408.255 63.5743 416.138 63.5743C424.021 63.5743 430.49 66.202 435.745 71.4573C441 76.7127 443.628 83.3829 443.628 91.468C443.628 99.5531 441 106.223 435.745 111.479C430.49 116.734 424.021 119.362 416.138 119.362C408.255 119.362 401.787 116.734 396.532 111.479ZM554.343 79.1382H514.12V40.936H488.045V142H514.12V103.596H554.343V142H580.418V40.936H554.343V79.1382ZM594.404 40.936V65.9999H626.34V142H652.415V65.9999H683.947V40.936H594.404ZM770.732 52.8616C762.85 42.9573 751.935 38.1062 737.786 38.1062C724.243 38.1062 712.722 43.3615 703.02 53.6701C693.52 63.9786 688.669 76.5105 688.669 91.468C688.669 106.425 693.52 119.16 703.02 129.468C712.722 139.777 724.243 144.83 737.786 144.83C751.935 144.83 762.85 139.979 770.732 130.074V142H796.807V40.936H770.732V52.8616ZM722.626 112.085C717.371 106.628 714.743 99.7553 714.743 91.468C714.743 83.1808 717.371 76.3084 722.626 71.0531C727.881 65.5956 734.552 62.968 742.637 62.968C750.722 62.968 757.392 65.5956 762.647 71.0531C768.105 76.3084 770.732 83.1808 770.732 91.468C770.732 99.7553 768.105 106.628 762.647 112.085C757.392 117.34 750.722 119.968 742.637 119.968C734.552 119.968 727.881 117.34 722.626 112.085ZM871.792 90.8616L912.419 40.936H881.292L846.526 85.4042V40.936H820.451V142H846.526V96.117L883.313 142H913.632L871.792 90.8616ZM916.743 40.936V65.9999H948.679V142H974.754V65.9999H1006.29V40.936H916.743ZM1046.28 73.2765V40.936H1020.21V142H1065.89C1088.73 142 1104.09 128.457 1104.09 107.638C1104.09 86.8191 1088.73 73.2765 1065.89 73.2765H1046.28ZM1115.21 142H1141.29V40.936H1115.21V142ZM1046.28 118.957V96.117H1066.09C1073.37 96.117 1078.63 100.968 1078.63 107.638C1078.63 114.308 1073.37 118.957 1066.09 118.957H1046.28Z" fill="#0D0D0D"/>
</g>
<path d="M10 80.21L9.048 80.21L9.048 85.04L6.262 82.24C5.1 81.078 4.106 80.42 2.972 80.42C2.062 80.42 1.348 80.714 0.829999 81.316C0.298 81.904 0.0319996 82.59 0.0319997 83.374C0.0319997 84.662 0.661999 85.782 1.88 86.398L2.37 85.572C1.446 85.11 0.983999 84.382 0.983999 83.374C0.983999 82.296 1.726 81.4 2.972 81.4C3.686 81.4 4.554 81.904 5.562 82.912L9.118 86.44L10 86.44L10 80.21ZM8.796 68.4412C7.872 67.7832 6.64 67.4612 5.1 67.4612C3.56 67.4612 2.328 67.7832 1.418 68.4412C0.493999 69.0852 0.0319991 69.9952 0.0319991 71.1712C0.0319992 72.3473 0.493999 73.2572 1.418 73.9153C2.328 74.5592 3.56 74.8812 5.1 74.8812C6.64 74.8812 7.872 74.5592 8.796 73.9152C9.706 73.2572 10.168 72.3472 10.168 71.1712C10.168 69.9952 9.706 69.0852 8.796 68.4412ZM8.138 73.1872C7.424 73.6632 6.402 73.9012 5.1 73.9012C3.798 73.9012 2.776 73.6632 2.062 73.1872C1.348 72.6972 0.983999 72.0252 0.983999 71.1712C0.983999 70.3172 1.348 69.6452 2.062 69.1692C2.776 68.6792 3.798 68.4412 5.1 68.4412C6.402 68.4412 7.424 68.6792 8.138 69.1692C8.852 69.6452 9.216 70.3172 9.216 71.1712C9.216 72.0252 8.852 72.6972 8.138 73.1872ZM10 55.9096L9.048 55.9096L9.048 60.7396L6.262 57.9396C5.1 56.7776 4.106 56.1196 2.972 56.1196C2.062 56.1196 1.348 56.4136 0.829998 57.0156C0.297998 57.6036 0.0319986 58.2896 0.0319986 59.0736C0.0319987 60.3616 0.661998 61.4816 1.88 62.0976L2.37 61.2716C1.446 60.8096 0.983998 60.0816 0.983998 59.0736C0.983998 57.9956 1.726 57.0996 2.972 57.0996C3.686 57.0996 4.554 57.6036 5.562 58.6116L9.118 62.1396L10 62.1396L10 55.9096ZM8.796 44.1409C7.872 43.4829 6.64 43.1609 5.1 43.1609C3.56 43.1609 2.328 43.4829 1.418 44.1409C0.493998 44.7849 0.031998 45.6949 0.0319981 46.8709C0.0319981 48.0469 0.493998 48.9569 1.418 49.6149C2.328 50.2589 3.56 50.5809 5.1 50.5809C6.64 50.5809 7.872 50.2589 8.796 49.6149C9.706 48.9569 10.168 48.0469 10.168 46.8709C10.168 45.6949 9.706 44.7849 8.796 44.1409ZM8.138 48.8869C7.424 49.3629 6.402 49.6009 5.1 49.6009C3.798 49.6009 2.776 49.3629 2.062 48.8869C1.348 48.3969 0.983998 47.7249 0.983997 46.8709C0.983997 46.0169 1.348 45.3449 2.062 44.8689C2.776 44.3789 3.798 44.1409 5.1 44.1409C6.402 44.1409 7.424 44.3789 8.138 44.8689C8.852 45.3449 9.216 46.0169 9.216 46.8709C9.216 47.7249 8.852 48.3969 8.138 48.8869Z" fill="#E9E9E9"/>
<defs>
<filter id="filter0_i" x="253.969" y="0.510376" width="887.316" height="147.2" filterUnits="userSpaceOnUse" color-interpolation-filters="sRGB">
<feFlood flood-opacity="0" result="BackgroundImageFix"/>
<feBlend mode="normal" in="SourceGraphic" in2="BackgroundImageFix" result="shape"/>
<feColorMatrix in="SourceAlpha" type="matrix" values="0 0 0 0 0 0 0 0 0 0 0 0 0 0 0 0 0 0 127 0" result="hardAlpha"/>
<feOffset dy="2.88112"/>
<feGaussianBlur stdDeviation="1.44056"/>
<feComposite in2="hardAlpha" operator="arithmetic" k2="-1" k3="1"/>
<feColorMatrix type="matrix" values="0 0 0 0 0 0 0 0 0 0 0 0 0 0 0 0 0 0 0.25 0"/>
<feBlend mode="normal" in2="shape" result="effect1_innerShadow"/>
</filter>
</defs>
</svg>
