<svg width="1244" height="197" viewBox="0 0 1244 197" fill="none" xmlns="http://www.w3.org/2000/svg">
<g filter="url(#filter0_i)">
<path d="M246.067 154.519C261.872 154.519 274.728 150.515 284.633 142.507C294.538 134.498 299.596 123.75 299.596 110.052C299.596 101.622 297.278 94.2462 294.116 89.1883C291.377 84.1304 284.633 78.8617 280.207 76.1221C278.1 74.6469 274.939 73.1716 270.934 71.6964C266.93 70.0105 263.769 68.746 261.451 68.1137L251.335 64.7418C240.376 61.3699 233 58.2087 228.996 55.469C225.203 52.5186 223.306 48.7252 223.306 44.0888C223.306 35.4482 230.682 29.3366 242.695 29.3366C255.55 29.3366 265.034 35.659 270.934 48.3037L295.381 34.1838C285.265 13.32 266.509 1.09677 242.695 1.09677C229.418 1.09677 217.827 5.10093 208.343 13.1093C198.86 20.9068 194.223 31.6548 194.223 44.9318C194.223 58.4195 199.07 68.5352 208.132 75.2791C217.405 81.8122 225.414 84.9734 238.69 88.9775C250.703 92.3494 258.922 95.5106 263.558 98.4611C268.195 101.201 270.513 105.205 270.513 110.474C270.513 119.536 263.137 126.069 246.91 126.069C230.05 126.069 218.67 118.482 212.98 103.519L188.112 118.06C196.331 140.61 216.773 154.519 246.067 154.519ZM375.887 43.2458C361.557 43.2458 351.019 48.093 344.486 57.998V46.1963H317.3V151.569H344.486V94.6676C344.486 77.1758 353.548 68.5352 367.668 68.5352C380.313 68.5352 388.532 76.1221 388.532 90.242V151.569H415.718V86.8701C415.718 73.1716 411.925 62.6344 404.338 54.8368C396.962 47.0392 387.478 43.2458 375.887 43.2458ZM528.709 138.503C539.457 127.755 544.936 114.478 544.936 98.8825C544.936 83.2874 539.457 70.2212 528.709 59.4732C517.961 48.7252 504.684 43.2458 489.089 43.2458C473.494 43.2458 460.217 48.7252 449.469 59.4732C438.721 70.2212 433.452 83.2874 433.452 98.8825C433.452 114.478 438.721 127.755 449.469 138.503C460.217 149.251 473.494 154.519 489.089 154.519C504.684 154.519 517.961 149.251 528.709 138.503ZM468.646 119.746C463.378 114.267 460.638 107.312 460.638 98.8825C460.638 90.4527 463.378 83.4981 468.646 78.0188C474.126 72.5394 480.87 69.7997 489.089 69.7997C497.308 69.7997 504.052 72.5394 509.531 78.0188C515.01 83.4981 517.75 90.4527 517.75 98.8825C517.75 107.312 515.01 114.267 509.531 119.746C504.052 125.226 497.308 127.965 489.089 127.965C480.87 127.965 474.126 125.226 468.646 119.746ZM660.681 111.106L641.504 46.1963H615.793L596.615 110.895L578.701 46.1963H549.829L583.338 151.569H609.26L628.648 87.7131L648.037 151.569H673.958L707.467 46.1963H678.595L660.681 111.106ZM864.162 4.0472H776.071V151.569H805.154V94.6676H862.476V66.8493H805.154V31.8656H864.162V4.0472ZM901.37 33.5515C910.433 33.5515 918.019 25.9647 918.019 16.9027C918.019 7.84062 910.433 0.0430448 901.37 0.0430448C892.098 0.0430448 884.511 7.84062 884.511 16.9027C884.511 25.9647 892.098 33.5515 901.37 33.5515ZM887.672 153.676C887.672 166.321 881.771 171.379 868.916 170.536V196.668C900.106 198.565 914.858 184.656 914.858 153.676V46.1963H887.672V153.676ZM1029.43 138.503C1040.18 127.755 1045.66 114.478 1045.66 98.8825C1045.66 83.2874 1040.18 70.2212 1029.43 59.4732C1018.69 48.7252 1005.41 43.2458 989.814 43.2458C974.219 43.2458 960.942 48.7252 950.194 59.4732C939.446 70.2212 934.178 83.2874 934.178 98.8825C934.178 114.478 939.446 127.755 950.194 138.503C960.942 149.251 974.219 154.519 989.814 154.519C1005.41 154.519 1018.69 149.251 1029.43 138.503ZM969.372 119.746C964.103 114.267 961.364 107.312 961.364 98.8825C961.364 90.4527 964.103 83.4981 969.372 78.0188C974.851 72.5394 981.595 69.7997 989.814 69.7997C998.033 69.7997 1004.78 72.5394 1010.26 78.0188C1015.74 83.4981 1018.48 90.4527 1018.48 98.8825C1018.48 107.312 1015.74 114.267 1010.26 119.746C1004.78 125.226 998.033 127.965 989.814 127.965C981.595 127.965 974.851 125.226 969.372 119.746ZM1091.97 46.1963H1064.79V151.569H1091.97V101.201C1091.97 91.085 1095.13 83.9196 1101.67 79.494C1108.2 75.0683 1115.79 73.3824 1124.01 74.4361V44.0888C1109.68 44.0888 1097.03 50.8326 1091.97 64.3203V46.1963ZM1215.87 58.6302C1207.86 48.3037 1196.48 43.2458 1181.73 43.2458C1167.61 43.2458 1155.38 48.7252 1145.27 59.4732C1135.36 70.2212 1130.31 83.2874 1130.31 98.8825C1130.31 114.478 1135.36 127.755 1145.27 138.503C1155.38 149.251 1167.61 154.519 1181.73 154.519C1196.48 154.519 1207.86 149.461 1215.87 139.135V151.569H1243.05V4.0472H1215.87V58.6302ZM1165.71 120.379C1160.23 114.688 1157.49 107.523 1157.49 98.8825C1157.49 90.242 1160.23 83.0767 1165.71 77.5973C1171.4 71.9072 1178.36 69.1675 1186.79 69.1675C1195.22 69.1675 1202.17 71.9072 1207.65 77.5973C1213.13 83.0767 1215.87 90.242 1215.87 98.8825C1215.87 107.523 1213.13 114.688 1207.65 120.379C1202.17 125.858 1195.22 128.598 1186.79 128.598C1178.36 128.598 1171.4 125.858 1165.71 120.379Z" fill="#1E1F29"/>
</g>
<path d="M10 74.21L9.048 74.21L9.048 79.04L6.262 76.24C5.1 75.078 4.106 74.42 2.972 74.42C2.062 74.42 1.348 74.714 0.829999 75.316C0.298 75.904 0.0319996 76.59 0.0319997 77.374C0.0319997 78.662 0.661999 79.782 1.88 80.398L2.37 79.572C1.446 79.11 0.983999 78.382 0.983999 77.374C0.983999 76.296 1.726 75.4 2.972 75.4C3.686 75.4 4.554 75.904 5.562 76.912L9.118 80.44L10 80.44L10 74.21ZM8.796 62.4412C7.872 61.7832 6.64 61.4612 5.1 61.4612C3.56 61.4612 2.328 61.7832 1.418 62.4412C0.493999 63.0852 0.0319991 63.9952 0.0319991 65.1712C0.0319992 66.3473 0.493999 67.2572 1.418 67.9153C2.328 68.5592 3.56 68.8812 5.1 68.8812C6.64 68.8812 7.872 68.5592 8.796 67.9152C9.706 67.2572 10.168 66.3472 10.168 65.1712C10.168 63.9952 9.706 63.0852 8.796 62.4412ZM8.138 67.1872C7.424 67.6632 6.402 67.9012 5.1 67.9012C3.798 67.9012 2.776 67.6632 2.062 67.1872C1.348 66.6972 0.983999 66.0252 0.983999 65.1712C0.983999 64.3172 1.348 63.6452 2.062 63.1692C2.776 62.6792 3.798 62.4412 5.1 62.4412C6.402 62.4412 7.424 62.6792 8.138 63.1692C8.852 63.6452 9.216 64.3172 9.216 65.1712C9.216 66.0252 8.852 66.6972 8.138 67.1872ZM10 49.9096L9.048 49.9096L9.048 54.7396L6.262 51.9396C5.1 50.7776 4.106 50.1196 2.972 50.1196C2.062 50.1196 1.348 50.4136 0.829998 51.0156C0.297998 51.6036 0.0319986 52.2896 0.0319986 53.0736C0.0319987 54.3616 0.661998 55.4816 1.88 56.0976L2.37 55.2716C1.446 54.8096 0.983998 54.0816 0.983998 53.0736C0.983998 51.9956 1.726 51.0996 2.972 51.0996C3.686 51.0996 4.554 51.6036 5.562 52.6116L9.118 56.1396L10 56.1396L10 49.9096ZM8.796 38.1409C7.872 37.4829 6.64 37.1609 5.1 37.1609C3.56 37.1609 2.328 37.4829 1.418 38.1409C0.493998 38.7849 0.031998 39.6949 0.0319981 40.8709C0.0319981 42.0469 0.493998 42.9569 1.418 43.6149C2.328 44.2589 3.56 44.5809 5.1 44.5809C6.64 44.5809 7.872 44.2589 8.796 43.6149C9.706 42.9569 10.168 42.0469 10.168 40.8709C10.168 39.6949 9.706 38.7849 8.796 38.1409ZM8.138 42.8869C7.424 43.3629 6.402 43.6009 5.1 43.6009C3.798 43.6009 2.776 43.3629 2.062 42.8869C1.348 42.3969 0.983998 41.7249 0.983997 40.8709C0.983997 40.0169 1.348 39.3449 2.062 38.8689C2.776 38.3789 3.798 38.1409 5.1 38.1409C6.402 38.1409 7.424 38.3789 8.138 38.8689C8.852 39.3449 9.216 40.0169 9.216 40.8709C9.216 41.7249 8.852 42.3969 8.138 42.8869Z" fill="#E9E9E9"/>
<defs>
<filter id="filter0_i" x="188.111" y="0.0430908" width="1054.94" height="199.8" filterUnits="userSpaceOnUse" color-interpolation-filters="sRGB">
<feFlood flood-opacity="0" result="BackgroundImageFix"/>
<feBlend mode="normal" in="SourceGraphic" in2="BackgroundImageFix" result="shape"/>
<feColorMatrix in="SourceAlpha" type="matrix" values="0 0 0 0 0 0 0 0 0 0 0 0 0 0 0 0 0 0 127 0" result="hardAlpha"/>
<feOffset dy="3.00395"/>
<feGaussianBlur stdDeviation="1.50197"/>
<feComposite in2="hardAlpha" operator="arithmetic" k2="-1" k3="1"/>
<feColorMatrix type="matrix" values="0 0 0 0 0 0 0 0 0 0 0 0 0 0 0 0 0 0 0.25 0"/>
<feBlend mode="normal" in2="shape" result="effect1_innerShadow"/>
</filter>
</defs>
</svg>
