<svg width="1226" height="198" viewBox="0 0 1226 198" fill="none" xmlns="http://www.w3.org/2000/svg">
<g filter="url(#filter0_i)">
<path d="M230.04 155.248C245.828 155.248 258.67 151.248 268.564 143.248C278.458 135.249 283.51 124.513 283.51 110.83C283.51 102.409 281.195 95.0411 278.037 89.9889C275.3 84.9366 268.564 79.6738 264.143 76.9371C262.038 75.4635 258.88 73.9899 254.881 72.5164C250.881 70.8323 247.723 69.5692 245.407 68.9376L235.303 65.5695C224.356 62.2013 216.988 59.0436 212.989 56.3069C209.199 53.3598 207.305 49.5705 207.305 44.9393C207.305 36.3083 214.673 30.2034 226.672 30.2034C239.513 30.2034 248.986 36.5188 254.881 49.1495L279.3 35.0452C269.195 14.2045 250.46 1.99482 226.672 1.99482C213.41 1.99482 201.831 5.99455 192.358 13.994C182.885 21.783 178.254 32.5191 178.254 45.7813C178.254 59.2541 183.096 69.3587 192.148 76.0951C201.41 82.6209 209.41 85.7786 222.672 89.7783C234.671 93.1465 242.881 96.3042 247.513 99.2514C252.144 101.988 254.459 105.988 254.459 111.251C254.459 120.303 247.092 126.828 230.882 126.828C214.041 126.828 202.674 119.25 196.99 104.304L172.149 118.829C180.359 141.354 200.779 155.248 230.04 155.248ZM359.717 44.0972C345.402 44.0972 334.877 48.939 328.351 58.8331V47.0444H301.195V152.3H328.351V95.4622C328.351 77.9897 337.403 69.3587 351.507 69.3587C364.138 69.3587 372.348 76.9371 372.348 91.0414V152.3H399.504V87.6732C399.504 73.9899 395.715 63.4643 388.136 55.6754C380.768 47.8864 371.295 44.0972 359.717 44.0972ZM512.37 139.249C523.106 128.513 528.579 115.25 528.579 99.6724C528.579 84.0945 523.106 71.0428 512.37 60.3067C501.633 49.5705 488.371 44.0972 472.793 44.0972C457.215 44.0972 443.953 49.5705 433.217 60.3067C422.481 71.0428 417.218 84.0945 417.218 99.6724C417.218 115.25 422.481 128.513 433.217 139.249C443.953 149.985 457.215 155.248 472.793 155.248C488.371 155.248 501.633 149.985 512.37 139.249ZM452.374 120.513C447.111 115.04 444.374 108.093 444.374 99.6724C444.374 91.2519 447.111 84.305 452.374 78.8317C457.847 73.3584 464.583 70.6217 472.793 70.6217C481.003 70.6217 487.74 73.3584 493.213 78.8317C498.686 84.305 501.423 91.2519 501.423 99.6724C501.423 108.093 498.686 115.04 493.213 120.513C487.74 125.986 481.003 128.723 472.793 128.723C464.583 128.723 457.847 125.986 452.374 120.513ZM644.196 111.882L625.04 47.0444H599.357L580.201 111.672L562.307 47.0444H533.467L566.938 152.3H592.831L612.198 88.5153L631.565 152.3H657.458L690.93 47.0444H662.09L644.196 111.882ZM847.452 4.94199H759.458V152.3H788.509V95.4622H845.768V67.6746H788.509V32.7296H847.452V4.94199ZM884.619 34.4137C893.671 34.4137 901.249 26.8352 901.249 17.7832C901.249 8.73121 893.671 0.942261 884.619 0.942261C875.356 0.942261 867.778 8.73121 867.778 17.7832C867.778 26.8352 875.356 34.4137 884.619 34.4137ZM870.936 154.406C870.936 167.036 865.041 172.089 852.2 171.246V197.35C883.356 199.245 898.092 185.351 898.092 154.406V47.0444H870.936V154.406ZM1012.54 139.249C1023.28 128.513 1028.75 115.25 1028.75 99.6724C1028.75 84.0945 1023.28 71.0428 1012.54 60.3067C1001.81 49.5705 988.543 44.0972 972.965 44.0972C957.387 44.0972 944.125 49.5705 933.389 60.3067C922.653 71.0428 917.39 84.0945 917.39 99.6724C917.39 115.25 922.653 128.513 933.389 139.249C944.125 149.985 957.387 155.248 972.965 155.248C988.543 155.248 1001.81 149.985 1012.54 139.249ZM952.545 120.513C947.283 115.04 944.546 108.093 944.546 99.6724C944.546 91.2519 947.283 84.305 952.545 78.8317C958.019 73.3584 964.755 70.6217 972.965 70.6217C981.175 70.6217 987.911 73.3584 993.385 78.8317C998.858 84.305 1001.59 91.2519 1001.59 99.6724C1001.59 108.093 998.858 115.04 993.385 120.513C987.911 125.986 981.175 128.723 972.965 128.723C964.755 128.723 958.019 125.986 952.545 120.513ZM1075.01 47.0444H1047.85V152.3H1075.01V101.988C1075.01 91.8835 1078.17 84.7261 1084.69 80.3053C1091.22 75.8845 1098.8 74.2004 1107.01 75.253V44.9393C1092.69 44.9393 1080.06 51.6757 1075.01 65.1484V47.0444ZM1198.77 59.4646C1190.77 49.1495 1179.4 44.0972 1164.67 44.0972C1150.56 44.0972 1138.35 49.5705 1128.25 60.3067C1118.35 71.0428 1113.3 84.0945 1113.3 99.6724C1113.3 115.25 1118.35 128.513 1128.25 139.249C1138.35 149.985 1150.56 155.248 1164.67 155.248C1179.4 155.248 1190.77 150.195 1198.77 139.88V152.3H1225.92V4.94199H1198.77V59.4646ZM1148.67 121.145C1143.19 115.461 1140.46 108.303 1140.46 99.6724C1140.46 91.0414 1143.19 83.884 1148.67 78.4107C1154.35 72.7269 1161.3 69.9902 1169.72 69.9902C1178.14 69.9902 1185.09 72.7269 1190.56 78.4107C1196.03 83.884 1198.77 91.0414 1198.77 99.6724C1198.77 108.303 1196.03 115.461 1190.56 121.145C1185.09 126.618 1178.14 129.355 1169.72 129.355C1161.3 129.355 1154.35 126.618 1148.67 121.145Z" fill="#EDEDED"/>
</g>
<path d="M10 75.21L9.048 75.21L9.048 80.04L6.262 77.24C5.1 76.078 4.106 75.42 2.972 75.42C2.062 75.42 1.348 75.714 0.829999 76.316C0.298 76.904 0.0319996 77.59 0.0319997 78.374C0.0319997 79.662 0.661999 80.782 1.88 81.398L2.37 80.572C1.446 80.11 0.983999 79.382 0.983999 78.374C0.983999 77.296 1.726 76.4 2.972 76.4C3.686 76.4 4.554 76.904 5.562 77.912L9.118 81.44L10 81.44L10 75.21ZM8.796 63.4412C7.872 62.7832 6.64 62.4612 5.1 62.4612C3.56 62.4612 2.328 62.7832 1.418 63.4412C0.493999 64.0852 0.0319991 64.9952 0.0319991 66.1712C0.0319992 67.3473 0.493999 68.2572 1.418 68.9153C2.328 69.5592 3.56 69.8812 5.1 69.8812C6.64 69.8812 7.872 69.5592 8.796 68.9152C9.706 68.2572 10.168 67.3472 10.168 66.1712C10.168 64.9952 9.706 64.0852 8.796 63.4412ZM8.138 68.1872C7.424 68.6632 6.402 68.9012 5.1 68.9012C3.798 68.9012 2.776 68.6632 2.062 68.1872C1.348 67.6972 0.983999 67.0252 0.983999 66.1712C0.983999 65.3172 1.348 64.6452 2.062 64.1692C2.776 63.6792 3.798 63.4412 5.1 63.4412C6.402 63.4412 7.424 63.6792 8.138 64.1692C8.852 64.6452 9.216 65.3172 9.216 66.1712C9.216 67.0252 8.852 67.6972 8.138 68.1872ZM10 50.9096L9.048 50.9096L9.048 55.7396L6.262 52.9396C5.1 51.7776 4.106 51.1196 2.972 51.1196C2.062 51.1196 1.348 51.4136 0.829998 52.0156C0.297998 52.6036 0.0319986 53.2896 0.0319986 54.0736C0.0319987 55.3616 0.661998 56.4816 1.88 57.0976L2.37 56.2716C1.446 55.8096 0.983998 55.0816 0.983998 54.0736C0.983998 52.9956 1.726 52.0996 2.972 52.0996C3.686 52.0996 4.554 52.6036 5.562 53.6116L9.118 57.1396L10 57.1396L10 50.9096ZM8.796 39.1409C7.872 38.4829 6.64 38.1609 5.1 38.1609C3.56 38.1609 2.328 38.4829 1.418 39.1409C0.493998 39.7849 0.031998 40.6949 0.0319981 41.8709C0.0319981 43.0469 0.493998 43.9569 1.418 44.6149C2.328 45.2589 3.56 45.5809 5.1 45.5809C6.64 45.5809 7.872 45.2589 8.796 44.6149C9.706 43.9569 10.168 43.0469 10.168 41.8709C10.168 40.6949 9.706 39.7849 8.796 39.1409ZM8.138 43.8869C7.424 44.3629 6.402 44.6009 5.1 44.6009C3.798 44.6009 2.776 44.3629 2.062 43.8869C1.348 43.3969 0.983998 42.7249 0.983997 41.8709C0.983997 41.0169 1.348 40.3449 2.062 39.8689C2.776 39.3789 3.798 39.1409 5.1 39.1409C6.402 39.1409 7.424 39.3789 8.138 39.8689C8.852 40.3449 9.216 41.0169 9.216 41.8709C9.216 42.7249 8.852 43.3969 8.138 43.8869Z" fill="#141414"/>
<defs>
<filter id="filter0_i" x="172.149" y="0.942261" width="1053.78" height="199.579" filterUnits="userSpaceOnUse" color-interpolation-filters="sRGB">
<feFlood flood-opacity="0" result="BackgroundImageFix"/>
<feBlend mode="normal" in="SourceGraphic" in2="BackgroundImageFix" result="shape"/>
<feColorMatrix in="SourceAlpha" type="matrix" values="0 0 0 0 0 0 0 0 0 0 0 0 0 0 0 0 0 0 127 0" result="hardAlpha"/>
<feOffset dy="3.00062"/>
<feGaussianBlur stdDeviation="1.50031"/>
<feComposite in2="hardAlpha" operator="arithmetic" k2="-1" k3="1"/>
<feColorMatrix type="matrix" values="0 0 0 0 0 0 0 0 0 0 0 0 0 0 0 0 0 0 0.13 0"/>
<feBlend mode="normal" in2="shape" result="effect1_innerShadow"/>
</filter>
</defs>
</svg>
