<svg width="130" height="36" viewBox="0 0 130 36" fill="none" xmlns="http://www.w3.org/2000/svg">
<path d="M1.12 0.199999V10H2.1V6.36H4.62C5.502 6.36 6.23 6.066 6.818 5.478C7.406 4.89 7.7 4.162 7.7 3.28C7.7 2.398 7.406 1.67 6.818 1.082C6.23 0.494 5.502 0.199999 4.62 0.199999H1.12ZM2.1 5.436V1.124H4.62C5.222 1.124 5.726 1.334 6.118 1.74C6.524 2.146 6.72 2.65 6.72 3.28C6.72 3.91 6.524 4.428 6.118 4.834C5.726 5.24 5.222 5.436 4.62 5.436H2.1ZM14.5578 0.199999H13.5778V10H19.0378V9.076H14.5578V0.199999ZM32.4745 10L28.7085 0.199999H27.7005L23.9345 10H24.9705L25.8805 7.592H30.5285L31.4385 10H32.4745ZM28.2045 1.418L30.1785 6.668H26.2305L28.2045 1.418ZM42.6391 0.199999L39.7271 5.002L36.8011 0.199999H35.6951L39.2231 5.954V10H40.2031V5.982L43.7451 0.199999H42.6391Z" fill="#E9E9E9"/>
<path d="M81.68 34L77.914 24.2H76.906L73.14 34H74.176L75.086 31.592H79.734L80.644 34H81.68ZM77.41 25.418L79.384 30.668H75.436L77.41 25.418ZM91.2489 29.338V30.262H95.1409C95.0429 31.116 94.6649 31.83 94.0069 32.39C93.3489 32.936 92.4669 33.216 91.3609 33.216C90.1429 33.216 89.1349 32.824 88.3649 32.026C87.5949 31.228 87.2029 30.262 87.2029 29.1C87.2029 27.938 87.5949 26.972 88.3649 26.174C89.1349 25.376 90.1429 24.984 91.3609 24.984C92.8169 24.984 94.1189 25.754 94.7349 26.944L95.6029 26.44C95.1969 25.712 94.6089 25.124 93.8529 24.69C93.0969 24.256 92.2709 24.032 91.3609 24.032C89.8769 24.032 88.6449 24.522 87.6789 25.502C86.7129 26.482 86.2229 27.686 86.2229 29.1C86.2229 30.514 86.7129 31.718 87.6789 32.698C88.6449 33.678 89.8769 34.168 91.3609 34.168C92.8169 34.168 93.9789 33.748 94.8469 32.922C95.7149 32.082 96.1489 31.06 96.1489 29.842V29.338H91.2489ZM109.234 34L105.468 24.2H104.46L100.694 34H101.73L102.64 31.592H107.288L108.198 34H109.234ZM104.964 25.418L106.938 30.668H102.99L104.964 25.418ZM114.693 34H115.673V24.2H114.693V34ZM128.419 32.18L122.959 24.2H122.119V34H123.099V26.02L128.559 34H129.399V24.2H128.419V32.18Z" fill="#E9E9E9"/>
<circle cx="48" cy="32" r="4" fill="white"/>
<rect y="32" width="50" height="1" fill="white"/>
</svg>
