<svg width="1424" height="266" viewBox="0 0 1424 266" fill="none" xmlns="http://www.w3.org/2000/svg">
<g filter="url(#filter0_i)">
<path d="M78.9053 208.706C100.219 208.706 117.554 203.307 130.91 192.508C144.267 181.709 151.087 167.216 151.087 148.744C151.087 137.377 147.961 127.431 143.698 120.61C140.004 113.79 130.91 106.686 124.942 102.991C122.101 101.002 117.838 99.0128 112.439 97.0235C107.039 94.7501 102.776 93.045 99.6505 92.1925L86.0098 87.6456C71.2325 83.0987 61.2862 78.836 55.8868 75.1416C50.7715 71.1631 48.2139 66.0479 48.2139 59.7959C48.2139 48.1446 58.1602 39.9033 74.3585 39.9033C91.6934 39.9033 104.482 48.4288 112.439 65.4795L145.403 46.4395C131.763 18.3057 106.471 1.82324 74.3585 1.82324C56.4551 1.82324 40.8252 7.22266 28.0371 18.0215C15.249 28.5362 8.99708 43.0293 8.99708 60.9327C8.99708 79.1202 15.5332 92.7608 27.753 101.855C40.2569 110.664 51.0557 114.927 68.959 120.326C85.1573 124.873 96.2403 129.136 102.492 133.114C108.744 136.809 111.87 142.208 111.87 149.313C111.87 161.532 101.924 170.342 80.0421 170.342C57.3077 170.342 41.9619 160.111 34.2891 139.935L0.755859 159.543C11.8389 189.95 39.4043 208.706 78.9053 208.706Z" fill="#AFB0B5"/>
<path d="M253.962 58.6592C234.638 58.6592 220.429 65.1954 211.62 78.5518V62.6377H174.96V204.728H211.62V127.999C211.62 104.412 223.839 92.7608 242.879 92.7608C259.93 92.7608 271.013 102.991 271.013 122.031V204.728H307.672V117.484C307.672 99.0128 302.557 84.8038 292.327 74.2891C282.38 63.7745 269.592 58.6592 253.962 58.6592Z" fill="#AFB0B5"/>
<path d="M460.035 187.109C474.528 172.615 481.917 154.712 481.917 133.683C481.917 112.653 474.528 95.0343 460.035 80.5411C445.542 66.0479 427.638 58.6592 406.609 58.6592C385.58 58.6592 367.676 66.0479 353.183 80.5411C338.69 95.0343 331.586 112.653 331.586 133.683C331.586 154.712 338.69 172.615 353.183 187.109C367.676 201.602 385.58 208.706 406.609 208.706C427.638 208.706 445.542 201.602 460.035 187.109ZM379.044 161.817C371.939 154.428 368.245 145.05 368.245 133.683C368.245 122.316 371.939 112.938 379.044 105.549C386.432 98.1602 395.526 94.4659 406.609 94.4659C417.692 94.4659 426.786 98.1602 434.175 105.549C441.563 112.938 445.258 122.316 445.258 133.683C445.258 145.05 441.563 154.428 434.175 161.817C426.786 169.205 417.692 172.9 406.609 172.9C395.526 172.9 386.432 169.205 379.044 161.817Z" fill="#AFB0B5"/>
<path d="M637.994 150.165L612.133 62.6377H577.463L551.603 149.881L527.448 62.6377H488.515L533.7 204.728H568.654L594.798 118.621L620.943 204.728H655.897L701.082 62.6377H662.149L637.994 150.165Z" fill="#AFB0B5"/>
<path d="M912.378 5.80176H793.591V204.728H832.808V127.999H910.105V90.4874H832.808V43.3135H912.378V5.80176Z" fill="#AFB0B5"/>
<path d="M962.552 45.587C974.771 45.587 985.002 35.3565 985.002 23.1367C985.002 10.917 974.771 0.402344 962.552 0.402344C950.048 0.402344 939.817 10.917 939.817 23.1367C939.817 35.3565 950.048 45.587 962.552 45.587ZM944.08 207.569C944.08 224.62 936.123 231.441 918.788 230.304V265.542C960.846 268.1 980.739 249.344 980.739 207.569V62.6377H944.08V207.569Z" fill="#AFB0B5"/>
<path d="M1135.24 187.109C1149.73 172.615 1157.12 154.712 1157.12 133.683C1157.12 112.653 1149.73 95.0343 1135.24 80.5411C1120.75 66.0479 1102.84 58.6592 1081.81 58.6592C1060.78 58.6592 1042.88 66.0479 1028.39 80.5411C1013.89 95.0343 1006.79 112.653 1006.79 133.683C1006.79 154.712 1013.89 172.615 1028.39 187.109C1042.88 201.602 1060.78 208.706 1081.81 208.706C1102.84 208.706 1120.75 201.602 1135.24 187.109ZM1054.25 161.817C1047.14 154.428 1043.45 145.05 1043.45 133.683C1043.45 122.316 1047.14 112.938 1054.25 105.549C1061.64 98.1602 1070.73 94.4659 1081.81 94.4659C1092.9 94.4659 1101.99 98.1602 1109.38 105.549C1116.77 112.938 1120.46 122.316 1120.46 133.683C1120.46 145.05 1116.77 154.428 1109.38 161.817C1101.99 169.205 1092.9 172.9 1081.81 172.9C1070.73 172.9 1061.64 169.205 1054.25 161.817Z" fill="#AFB0B5"/>
<path d="M1219.57 62.6377H1182.91V204.728H1219.57V136.809C1219.57 123.168 1223.83 113.506 1232.64 107.538C1241.45 101.57 1251.68 99.297 1262.77 100.718V59.7959C1243.44 59.7959 1226.39 68.8897 1219.57 87.0772V62.6377Z" fill="#AFB0B5"/>
<path d="M1386.64 79.4044C1375.84 65.4795 1360.49 58.6592 1340.6 58.6592C1321.56 58.6592 1305.08 66.0479 1291.44 80.5411C1278.08 95.0343 1271.26 112.653 1271.26 133.683C1271.26 154.712 1278.08 172.615 1291.44 187.109C1305.08 201.602 1321.56 208.706 1340.6 208.706C1360.49 208.706 1375.84 201.886 1386.64 187.961V204.728H1423.3V5.80176H1386.64V79.4044ZM1319 162.669C1311.61 154.996 1307.92 145.334 1307.92 133.683C1307.92 122.031 1311.61 112.369 1319 104.981C1326.67 97.3077 1336.05 93.6133 1347.42 93.6133C1358.79 93.6133 1368.17 97.3077 1375.55 104.981C1382.94 112.369 1386.64 122.031 1386.64 133.683C1386.64 145.334 1382.94 154.996 1375.55 162.669C1368.17 170.058 1358.79 173.752 1347.42 173.752C1336.05 173.752 1326.67 170.058 1319 162.669Z" fill="#AFB0B5"/>
</g>
<defs>
<filter id="filter0_i" x="0.755859" y="0.402344" width="1422.54" height="269.42" filterUnits="userSpaceOnUse" color-interpolation-filters="sRGB">
<feFlood flood-opacity="0" result="BackgroundImageFix"/>
<feBlend mode="normal" in="SourceGraphic" in2="BackgroundImageFix" result="shape"/>
<feColorMatrix in="SourceAlpha" type="matrix" values="0 0 0 0 0 0 0 0 0 0 0 0 0 0 0 0 0 0 127 0" result="hardAlpha"/>
<feOffset dy="4.05068"/>
<feGaussianBlur stdDeviation="2.02534"/>
<feComposite in2="hardAlpha" operator="arithmetic" k2="-1" k3="1"/>
<feColorMatrix type="matrix" values="0 0 0 0 0 0 0 0 0 0 0 0 0 0 0 0 0 0 0.25 0"/>
<feBlend mode="normal" in2="shape" result="effect1_innerShadow"/>
</filter>
</defs>
</svg>
